<?xml version="1.0" standalone="no"?>
<!DOCTYPE svg PUBLIC "-//W3C//DTD SVG 20010904//EN"
 "http://www.w3.org/TR/2001/REC-SVG-20010904/DTD/svg10.dtd">
<svg version="1.0" xmlns="http://www.w3.org/2000/svg"
 width="283.000000pt" height="282.000000pt" viewBox="0 0 283.000000 282.000000"
 preserveAspectRatio="xMidYMid meet">
<metadata>
Created by potrace 1.15, written by Peter Selinger 2001-2017
</metadata>
<g transform="translate(0.000000,282.000000) scale(0.100000,-0.100000)"
fill="#000000" stroke="none">
<path d="M460 2325 l0 -146 88 61 c113 79 126 89 121 93 -2 2 -38 25 -79 52
-41 27 -87 57 -102 67 l-28 19 0 -146z"/>
<path d="M857 2129 c-47 -27 -62 -129 -27 -186 52 -86 160 -35 160 75 0 93
-67 149 -133 111z m81 -47 c17 -52 9 -121 -17 -154 -16 -19 -21 -20 -34 -9
-37 30 -46 137 -16 192 18 34 50 20 67 -29z"/>
<path d="M1860 2132 c-11 -2 -14 -13 -12 -47 4 -45 4 -45 -25 -39 -36 7 -53
-11 -59 -63 -6 -51 14 -89 47 -85 13 1 35 2 49 2 25 0 25 0 22 83 -4 144 -6
153 -22 149z"/>
<path d="M629 2020 c5 -14 22 -54 38 -90 17 -36 58 -128 91 -205 34 -77 130
-295 214 -485 l154 -345 263 -3 c158 -1 278 2 301 8 60 16 90 61 164 247 75
187 79 218 33 262 -22 20 -35 22 -275 28 -176 4 -255 10 -262 18 -6 7 -39 77
-74 156 l-64 144 401 5 401 5 15 27 c14 24 14 28 -3 47 -19 21 -27 21 -428 21
l-409 0 -24 -24 c-48 -48 -44 -77 36 -264 98 -231 91 -223 220 -233 57 -4 173
-8 257 -8 152 -1 153 -1 147 -23 -23 -72 -118 -285 -132 -295 -12 -10 -82 -13
-267 -13 l-251 0 -34 78 c-104 232 -433 957 -437 962 -3 3 -3 -7 1 -23 7 -25
5 -27 -24 -27 -17 0 -31 4 -31 8 0 5 -7 17 -15 28 -14 18 -15 18 -6 -6z"/>
<path d="M1072 808 c-28 -31 -36 -70 -22 -113 33 -101 150 -73 150 35 0 63
-11 69 -30 18 -12 -34 -21 -44 -42 -46 -22 -3 -29 2 -34 22 -6 25 -2 54 12 90
9 23 -9 20 -34 -6z"/>
<path d="M1726 786 c18 -53 6 -89 -28 -84 -22 3 -31 15 -49 63 l-11 30 -10
-29 c-23 -64 37 -149 92 -131 57 18 80 117 39 169 -11 14 -27 26 -34 26 -11 0
-11 -8 1 -44z"/>
</g>
</svg>
